# xmcd
#
# Track frame offsets: 
#        150
#        15910
#        32447
#        49372
#        64248
#        81779
#        97092
#        113611
#        128569
#        144236
#        160660
#
# Disc length: 2331 seconds
#
# Revision: 0
# Processed by: cddbd v1.5.2PL0 Copyright (c) Steve Scherf et al.
# Submitted via: ExactAudioCopyFreeDBPlugin 1.0
#
DISCID=8009190b
DTITLE=Billy Dean - The Hits
DYEAR=2011
DGENRE=Country
TTITLE0=We Just Disagree
TTITLE1=Real Things
TTITLE2=Let Them Be Little
TTITLE3=The Greatest Man I Never Knew
TTITLE4=I Wanna Take Care Of You
TTITLE5=Somewhere In My Broken Heart
TTITLE6=Tryin' To Hide A Fire In The Dark
TTITLE7=You Don't Count The Cost
TTITLE8=It's What I Do
TTITLE9=Real Man
TTITLE10=Billy The Kid
EXTD=
EXTT0=
EXTT1=
EXTT2=
EXTT3=
EXTT4=
EXTT5=
EXTT6=
EXTT7=
EXTT8=
EXTT9=
EXTT10=
PLAYORDER=
